<svg width="18" height="19" viewBox="0 0 18 19" fill="none" xmlns="http://www.w3.org/2000/svg">
<path d="M6.50164 15.9899C6.22059 15.9899 5.94584 16.0733 5.71215 16.2294C5.47846 16.3856 5.29632 16.6075 5.18876 16.8672C5.08121 17.1268 5.05307 17.4126 5.1079 17.6882C5.16273 17.9639 5.29807 18.2171 5.49681 18.4158C5.69555 18.6146 5.94875 18.7499 6.22441 18.8047C6.50007 18.8596 6.78579 18.8314 7.04546 18.7239C7.30512 18.6163 7.52706 18.4342 7.68321 18.2005C7.83935 17.9668 7.9227 17.692 7.9227 17.411C7.9227 17.0341 7.77298 16.6726 7.50648 16.4061C7.23998 16.1396 6.87853 15.9899 6.50164 15.9899ZM16.449 13.1478H5.08059C4.82933 13.1478 4.58837 13.048 4.4107 12.8703C4.23304 12.6927 4.13322 12.4517 4.13322 12.2005C4.13322 11.9492 4.23304 11.7082 4.4107 11.5306C4.58837 11.3529 4.82933 11.2531 5.08059 11.2531H13.1249C13.742 11.2511 14.3419 11.0492 14.8346 10.6775C15.3273 10.3059 15.6863 9.78465 15.8579 9.19182L17.3598 3.93457C17.4001 3.79357 17.4072 3.64515 17.3803 3.50098C17.3535 3.35681 17.2936 3.22084 17.2053 3.10376C17.117 2.98668 17.0028 2.89169 16.8715 2.82627C16.7403 2.76085 16.5957 2.72679 16.449 2.72677H4.8334C4.63728 2.17479 4.27575 1.6967 3.79807 1.35764C3.32039 1.01859 2.74979 0.835045 2.16401 0.832031H1.29112C1.03986 0.832031 0.798894 0.931843 0.621228 1.10951C0.443562 1.28718 0.34375 1.52814 0.34375 1.7794C0.34375 2.03066 0.443562 2.27162 0.621228 2.44929C0.798894 2.62696 1.03986 2.72677 1.29112 2.72677H2.16401C2.36967 2.72749 2.56956 2.7948 2.73376 2.91864C2.89795 3.04247 3.01762 3.21617 3.07483 3.4137L3.22217 3.92977L3.2224 3.93457L4.77668 9.37454C4.05342 9.45234 3.38752 9.8045 2.91611 10.3585C2.44469 10.9125 2.20364 11.6262 2.24259 12.3526C2.28153 13.079 2.59752 13.7628 3.12547 14.2632C3.65343 14.7636 4.35316 15.0425 5.08059 15.0426H16.449C16.7003 15.0426 16.9412 14.9427 17.1189 14.7651C17.2966 14.5874 17.3964 14.3464 17.3964 14.0952C17.3964 13.8439 17.2966 13.603 17.1189 13.4253C16.9412 13.2476 16.7003 13.1478 16.449 13.1478ZM15.1931 4.62151L14.0362 8.67095C13.979 8.86865 13.8593 9.0425 13.695 9.16643C13.5307 9.29036 13.3307 9.3577 13.1249 9.35835H6.74265L6.50112 8.5131L5.38983 4.62151H15.1931ZM14.0806 15.9899C13.7995 15.9899 13.5248 16.0733 13.2911 16.2294C13.0574 16.3856 12.8753 16.6075 12.7677 16.8672C12.6602 17.1268 12.632 17.4126 12.6868 17.6882C12.7417 17.9639 12.877 18.2171 13.0758 18.4158C13.2745 18.6146 13.5277 18.7499 13.8034 18.8047C14.079 18.8596 14.3647 18.8314 14.6244 18.7239C14.8841 18.6163 15.106 18.4342 15.2622 18.2005C15.4183 17.9668 15.5016 17.692 15.5016 17.411C15.5016 17.0341 15.3519 16.6726 15.0854 16.4061C14.8189 16.1396 14.4575 15.9899 14.0806 15.9899Z" fill="white"/>
</svg>
